<svg width="20" height="20" viewBox="-1 -1 22 22" fill="none" xmlns="http://www.w3.org/2000/svg">
<path d="M4.16667 17.5C3.70833 17.5 3.31597 17.3368 2.98958 17.0104C2.66319 16.684 2.5 16.2917 2.5 15.8333V4.16667C2.5 3.70833 2.66319 3.31597 2.98958 2.98958C3.31597 2.66319 3.70833 2.5 4.16667 2.5H9.60417C9.88194 2.5 10.0903 2.58681 10.2292 2.76042C10.3681 2.93403 10.4375 3.125 10.4375 3.33333C10.4375 3.54167 10.3646 3.73264 10.2187 3.90625C10.0729 4.07986 9.86111 4.16667 9.58333 4.16667H4.16667V15.8333H15.8333V10.3958C15.8333 10.1181 15.9201 9.90972 16.0937 9.77083C16.2674 9.63194 16.4583 9.5625 16.6667 9.5625C16.875 9.5625 17.066 9.63194 17.2396 9.77083C17.4132 9.90972 17.5 10.1181 17.5 10.3958V15.8333C17.5 16.2917 17.3368 16.684 17.0104 17.0104C16.684 17.3368 16.2917 17.5 15.8333 17.5H4.16667ZM7.5 11.6667V9.64583C7.5 9.42361 7.54167 9.21181 7.625 9.01042C7.70833 8.80903 7.82639 8.63194 7.97917 8.47917L15.1458 1.3125C15.3125 1.14583 15.5 1.02083 15.7083 0.9375C15.9167 0.854167 16.125 0.8125 16.3333 0.8125C16.5556 0.8125 16.7674 0.854167 16.9687 0.9375C17.1701 1.02083 17.3542 1.14583 17.5208 1.3125L18.6875 2.5C18.8403 2.66667 18.9583 2.85069 19.0417 3.05208C19.125 3.25347 19.1667 3.45833 19.1667 3.66667C19.1667 3.875 19.1285 4.07986 19.0521 4.28125C18.9757 4.48264 18.8542 4.66667 18.6875 4.83333L11.5208 12C11.3681 12.1528 11.191 12.2743 10.9896 12.3646C10.7882 12.4549 10.5764 12.5 10.3542 12.5H8.33333C8.09722 12.5 7.89931 12.4201 7.73958 12.2604C7.57986 12.1007 7.5 11.9028 7.5 11.6667ZM9.16667 10.8333H10.3333L15.1667 6L14.5833 5.41667L13.9792 4.83333L9.16667 9.64583V10.8333Z" fill="#666666"/>
</svg>
